<svg fill="none" height="38" width="70" xmlns="http://www.w3.org/2000/svg" xmlns:xlink="http://www.w3.org/1999/xlink"><clipPath id="a"><path d="m0 0h70v37.591h-70z"/></clipPath><g clip-path="url(#a)"><path clip-rule="evenodd" d="m34.787 9.572a18.757 18.757 0 0 1 16.398-9.618c10.397 0 18.822 8.425 18.822 18.822 0 10.358-8.426 18.781-18.822 18.781s-18.822-8.383-18.822-18.781c0-2.92.7-5.715 1.89-8.179l.002-.003.003-.007c.159-.317.323-.645.528-1.015zm.986.549c-.192.345-.346.652-.505.97a17.698 17.698 0 0 0 -1.776 7.685c0 9.772 7.918 17.653 17.693 17.653 9.774 0 17.693-7.92 17.693-17.653 0-9.774-7.92-17.693-17.693-17.693-6.606 0-12.4 3.63-15.412 9.038z" fill="#fff" fill-rule="evenodd"/><path clip-rule="evenodd" d="m-.007 18.814c0-10.397 8.425-18.821 18.822-18.821 10.358 0 18.782 8.425 18.782 18.821 0 10.357-8.384 18.782-18.782 18.782-10.396 0-18.822-8.424-18.822-18.782zm18.822-17.693c-9.774 0-17.693 7.92-17.693 17.693 0 9.733 7.918 17.654 17.693 17.654 9.773 0 17.653-7.92 17.653-17.654 0-9.774-7.92-17.693-17.653-17.693z" fill="#ffca0a" fill-rule="evenodd"/><path d="m22.163 21.726s1.196 2.072 1.436 2.55c.319.639-.12.878-.12.878s-.598.319-.877-.24c-.24-.438-1.076-1.913-1.355-2.351-.36-.558-.518-.758-1.037-.758h-2.47c-.518 0-.678.2-1.037.758-.279.438-1.116 1.913-1.395 2.352-.319.558-.917.239-.917.239s-.438-.28-.12-.877c.24-.479 1.436-2.552 1.436-2.552s.319-.438.319-.837v-2.312c0-.358-.32-.837-.32-.837s-1.195-2.073-1.434-2.551c-.32-.638.12-.877.12-.877s.597-.28.916.24c.24.438 1.076 1.912 1.395 2.351.399.558.558.757 1.037.757h2.471c.518 0 .678-.199 1.037-.757.279-.439 1.116-1.913 1.355-2.352.319-.518.877-.24.877-.24s.439.28.12.878c-.24.478-1.436 2.551-1.436 2.551s-.279.439-.279.837v2.312c-.04.36.28.837.28.837zm-4.503-10.923h3.548c.319 0 .558.24.558.558 0 .319-.24.558-.558.558h-3.548a.545.545 0 0 1 -.558-.558.57.57 0 0 1 .558-.558zm7.654 1.156c-.08-.2-.678-1.316-.678-1.316s.2-.12.319-.159c.08-.04.16-.12.04-.359-.16-.279-.28-.199-.28-.199s-.198.12-.398.2c-.359-.519-.837-.599-.996-.559h-.718c-.16 0-.279 0-.359.08-.04.08-.199.16-.358.16h-5.103c-.04 0-.08-.04-.08-.04-.319-.2-.717 0-.797.08-.08.079-.399.478-.598.677-.2.2-.359.24-.478.279.08-.12 0-.2 0-.2l-.08-.159.12-.279.08-.04v-.16s-.04.04-.16.08-.12.12-.12.12c-.04.16-.2.2-.2.2s-.278-.559-.318-.598c-.04-.08-.12-.28-1.076.239-.957.518-.718.717-.718.717l.32.638-.12.08.239.478s-.08.04-.28.16c-.199.12-.438.279-.438.637v13.874c0 1.036.319 1.515 1.475 1.515h10.604c.677 0 1.355-.36 1.355-1.555v-13.714c0-.718-.12-.718-.2-.877zm-4.903 6.657h-2.99a.46.46 0 0 0 -.479.479v1.275c0 .28.2.479.479.479h2.99a.46.46 0 0 0 .478-.479v-1.276c0-.239-.2-.478-.478-.478z" fill="#ffca0a"/><g fill="#fff"><path d="m49.152 14.072v3.228h4.624c.837 0 1.475-.678 1.475-1.475v-.24c0-.837-.678-1.474-1.475-1.474h-4.624v-.04zm6.697 8.092v-.24c0-.916-.758-1.634-1.675-1.634h-5.022v3.548h4.983c.956 0 1.714-.757 1.714-1.674zm1.435-3.628c.916.837 1.514 2.033 1.514 3.389v.239c0 2.551-2.033 4.624-4.584 4.624h-.12v1.355h-2.95v-1.355h-1.194v1.355h-2.95v-1.355h-2.232v-2.95h1.474v-9.726h-1.474v-2.95h2.152v-1.675h2.95v1.675h1.236v-1.675h2.95v1.675c2.312.16 4.185 2.073 4.185 4.424v.24c0 .996-.358 1.953-.956 2.71z"/><path clip-rule="evenodd" d="m32.363 18.776c0-2.92.7-5.715 1.89-8.179l1.016.491a17.698 17.698 0 0 0 -1.777 7.688z" fill-rule="evenodd"/><path clip-rule="evenodd" d="m34.788 9.607a19.282 19.282 0 0 1 3.902-4.845l.752.84a18.154 18.154 0 0 0 -3.666 4.55c-.084.167-.176.332-.261.484l-.004.005a10.76 10.76 0 0 0 -.246.454l-1.01-.505c.087-.171.182-.34.27-.496l.003-.006c.09-.162.174-.31.246-.454l.007-.014z" fill-rule="evenodd"/></g></g></svg>