<?xml version="1.0" encoding="UTF-8"?> <svg xmlns="http://www.w3.org/2000/svg" width="500" height="380" viewBox="0 0 500 380" fill="none"><rect x="63" width="380" height="380" rx="190" fill="#F9F8FF"></rect><g clip-path="url(#clip0_143_674)"><path d="M232.988 104.079L206.271 77L179.543 104.079H232.988ZM217.858 102.88L213.578 98.5456L217.364 94.7688L225.365 102.88H217.858ZM210.782 88.1515L216.186 93.6326L212.39 97.3463L206.996 91.9178L210.782 88.1515ZM205.819 90.729L204.094 88.9826L207.88 85.2164L209.604 86.9627L205.819 90.729ZM209.236 102.88L212.39 99.7239L215.492 102.88H209.236ZM195.956 102.88L205.819 93.054L211.223 98.5351L206.87 102.88H195.956ZM190.1 102.88L202.927 90.1188L204.631 91.9178L193.57 102.88H190.1ZM199.3 86.4578L201.739 88.93L187.713 102.88H183.087L199.3 86.4578ZM204.242 81.4606L206.702 83.975L202.927 87.7097L200.488 85.2374L204.242 81.4606ZM208.773 81.9235L207.901 82.7862L205.419 80.2613L206.281 79.3986L208.773 81.9235ZM211.675 84.8587L210.803 85.7213L209.068 83.975L209.93 83.1123L211.675 84.8587ZM218.257 91.5286L217.395 92.3912L211.97 86.9101L212.832 86.058L218.257 91.5286ZM219.435 92.7279L229.455 102.88H227.741L218.573 93.5905L219.435 92.7279Z" fill="#171717"></path><path d="M451.203 255.761H466.838V251.827C461.854 250.259 457.08 248.671 452.254 247.24C451.258 246.946 450.202 246.924 449.195 247.177C444.053 248.639 438.943 250.228 433.738 251.795V256.003H449.752V267.397H429.249V191.861V190.335H426.967V182.971H402.469V190.335H401.649V164.14H364.48V228.598H349.592V267.397H338.562V258.865C339.851 258.672 341.02 257.999 341.833 256.981C342.647 255.962 343.045 254.674 342.949 253.373C342.852 252.073 342.268 250.858 341.313 249.971C340.358 249.083 339.103 248.59 337.8 248.59C336.497 248.59 335.242 249.083 334.287 249.971C333.333 250.858 332.748 252.073 332.652 253.373C332.555 254.674 332.954 255.962 333.767 256.981C334.581 257.999 335.749 258.672 337.038 258.865V267.397H324.578V253.079C325.867 252.886 327.035 252.213 327.849 251.195C328.662 250.176 329.061 248.888 328.964 247.587C328.868 246.287 328.284 245.072 327.329 244.184C326.374 243.297 325.119 242.804 323.816 242.804C322.513 242.804 321.258 243.297 320.303 244.184C319.348 245.072 318.764 246.287 318.668 247.587C318.571 248.888 318.97 250.176 319.783 251.195C320.597 252.213 321.765 252.886 323.054 253.079V267.397H311.067V256.719C312.354 256.527 313.521 255.856 314.333 254.84C315.146 253.824 315.544 252.538 315.448 251.24C315.353 249.942 314.77 248.728 313.817 247.843C312.864 246.957 311.611 246.465 310.31 246.465C309.01 246.465 307.757 246.957 306.804 247.843C305.851 248.728 305.268 249.942 305.172 251.24C305.077 252.538 305.475 253.824 306.287 254.84C307.1 255.856 308.267 256.527 309.553 256.719V267.397H296.505V172.377V170.82H292.699V142.731H288.262V125.699H243.492V142.731H238.981V166.928H230.265V117.482H234.018V166.812H235.522V115.936H233.009V104.079H231.495V115.936H181.026V104.079H179.512V115.936H177.104V267.428H158.767V126.161H110.779V139.049H50.4058V267.397H31.9216V259.443C35.5385 258.728 38.4931 257.234 40.27 253.973C41.4093 251.86 41.7809 249.417 41.3214 247.061C40.4172 242.001 35.9276 238.645 30.4706 238.887C28.0654 239.027 25.7903 240.026 24.058 241.701C22.3257 243.377 21.251 245.618 21.0287 248.018C20.3243 253.278 23.7204 257.55 30.4916 259.507V267.397H0V268.922H117.614V269.017H119.128V268.922H157.263V269.143H158.767V268.922H390.693V269.038H392.186V268.922H496.593V267.397H451.171L451.203 255.761ZM31.2697 250.501C30.9753 251.322 30.6914 252.153 30.397 252.994L28.557 252.279C29.251 254.572 31.869 255.582 30.1762 257.76C25.287 257.076 21.7647 252.952 22.1853 248.429C22.3051 247.237 22.6626 246.081 23.2367 245.031C24.0737 243.439 25.3636 242.132 26.9432 241.274C28.5228 240.417 30.3212 240.047 32.1109 240.212C37.0947 240.654 40.4487 244.831 40.0807 250.143C39.9561 252.175 39.0475 254.078 37.5468 255.452C36.0461 256.826 34.0706 257.563 32.0373 257.508L34.2663 254.52H32.1634C32.0583 253.184 31.9637 251.9 31.8585 250.617L31.2697 250.501ZM63.8642 267.428H51.9199V160.458H63.8432L63.8642 267.428ZM77.3121 267.428H65.3678V160.458H77.2911L77.3121 267.428ZM90.7495 267.428H78.8577V160.458H90.7284L90.7495 267.428ZM104.187 267.428H92.253V160.458H104.166L104.187 267.428ZM117.635 267.428H105.69V160.458H117.614L117.635 267.428ZM117.635 158.964H51.9199V140.574H117.614L117.635 158.964ZM157.284 267.428H119.128V139.049H112.304V136.503H157.263L157.284 267.428ZM157.284 135.02H112.304V127.687H157.263L157.284 135.02ZM244.985 127.224H286.727V132.947H244.985V127.224ZM244.985 134.515H286.727V136.798H244.985V134.515ZM244.985 138.312H286.727V142.731H244.985V138.312ZM183.56 117.451H228.708V210.314H183.56V117.451ZM178.65 117.451H182.046V210.314H178.65V117.451ZM245.752 249.901V267.397H178.65V227.325H245.752V249.901ZM245.752 225.81H178.65V220.003H245.752V225.81ZM245.752 218.446H178.65V211.849H245.752V218.446ZM287.536 267.355H247.266V251.427H287.536V267.355ZM287.536 249.859H247.266V232.385H287.536V249.859ZM287.536 230.828H247.266V213.354H287.536V230.828ZM287.536 211.786H247.266V210.271H230.265V194.207H287.568L287.536 211.786ZM287.536 192.639H230.265V175.26H287.568L287.536 192.639ZM287.536 173.703H230.265V168.401H287.568L287.536 173.703ZM294.959 267.334H289.05V166.886H240.506V144.256H291.164V172.377H294.959V267.334ZM306.736 251.553C306.736 250.843 306.946 250.149 307.34 249.559C307.735 248.969 308.296 248.509 308.951 248.238C309.607 247.967 310.328 247.896 311.024 248.035C311.72 248.175 312.359 248.517 312.86 249.02C313.361 249.523 313.702 250.163 313.839 250.86C313.976 251.556 313.903 252.278 313.63 252.933C313.357 253.589 312.896 254.148 312.305 254.541C311.714 254.934 311.02 255.143 310.31 255.141C309.373 255.141 308.473 254.773 307.805 254.115C307.136 253.458 306.752 252.564 306.736 251.627V251.553ZM320.236 247.924C320.234 247.214 320.442 246.519 320.835 245.928C321.228 245.336 321.787 244.875 322.442 244.602C323.097 244.329 323.818 244.256 324.514 244.393C325.211 244.531 325.85 244.871 326.353 245.373C326.855 245.874 327.198 246.513 327.337 247.209C327.476 247.906 327.406 248.627 327.135 249.284C326.864 249.94 326.404 250.501 325.814 250.895C325.224 251.29 324.531 251.501 323.821 251.501C322.885 251.501 321.985 251.134 321.315 250.48C320.645 249.825 320.258 248.934 320.236 247.997V247.924ZM334.188 253.699C334.188 252.989 334.399 252.295 334.793 251.705C335.188 251.115 335.748 250.655 336.404 250.384C337.06 250.113 337.781 250.042 338.477 250.182C339.173 250.321 339.812 250.664 340.313 251.166C340.814 251.669 341.155 252.309 341.292 253.006C341.429 253.702 341.356 254.424 341.083 255.079C340.81 255.735 340.349 256.294 339.758 256.687C339.167 257.08 338.473 257.289 337.763 257.287C336.827 257.284 335.929 256.915 335.261 256.258C334.592 255.602 334.208 254.71 334.188 253.773V253.699ZM364.48 267.376H351.117V230.123H364.48V267.376ZM373.943 267.376H366.005V165.655H373.922L373.943 267.376ZM379.537 267.376H375.468V165.655H379.568L379.537 267.376ZM385.131 267.376H381.04V165.655H385.11L385.131 267.376ZM390.714 267.376H386.645V165.655H390.714V267.376ZM404.004 184.402H425.453V190.272H404.004V184.402ZM400.166 267.376H392.186V165.655H400.114L400.166 267.376ZM427.735 267.376H401.649V191.861H427.703L427.735 267.376ZM449.941 248.239C450.233 248.144 450.543 248.123 450.845 248.176C454.691 249.06 458.447 250.3 462.064 251.879H439.059L439.006 251.437L449.941 248.239ZM435.063 254.32L434.958 253.584C435.349 253.378 435.772 253.239 436.209 253.173H464.146C464.588 253.173 465.029 253.615 465.471 253.857L465.324 254.299L435.063 254.32Z" fill="#171717"></path><path d="M199.058 297.138C210.785 297.194 222.509 297.229 234.229 297.243C244.89 297.243 255.559 297.243 266.234 297.243C262.334 295.486 258.969 292.498 254.385 292.582C253.557 292.519 252.743 292.338 251.966 292.046C246.047 290.31 240.127 288.479 234.187 286.786C230.549 285.734 226.911 285.386 223.241 287.028C221.7 287.612 220.081 287.966 218.436 288.08C211.581 288.911 204.652 289.679 197.744 290.447C195.41 290.699 193.044 290.878 190.11 291.141C192.487 293.245 194.505 295.118 196.661 296.822C197.208 297.274 198.248 297.138 199.058 297.138ZM209.919 290.825C213.841 290.257 217.647 289.174 221.706 289.489C228.015 289.963 234.323 289.994 240.632 290.394C242.711 290.669 244.77 291.084 246.793 291.635L246.678 292.298L212.895 291.72L212.159 291.572H205.693C207.057 291.107 208.48 290.831 209.919 290.752V290.825ZM194.221 292.782H197.271L221.801 293.308L255.037 294.003C256.949 293.985 258.793 294.713 260.178 296.033H256.635C237.877 296.033 219.119 295.875 200.362 295.97C197.67 295.949 195.956 294.886 194.221 292.74V292.782Z" fill="#171717"></path><path d="M309.427 312.371C274.561 311.782 199.1 312.203 196.923 313.076C197.33 313.389 197.784 313.634 198.269 313.802C199.097 313.881 199.93 313.902 200.761 313.865H308.628C309.765 313.811 310.898 313.698 312.024 313.528V312.645C311.141 312.55 310.289 312.382 309.427 312.371Z" fill="#171717"></path><path d="M156.075 314.002H78.0376C76.9862 314.002 75.9347 314.181 74.8833 314.275C74.8833 314.58 74.999 314.875 75.062 315.169H159.072L159.219 314.728C158.812 314.444 158.37 314.215 157.905 314.044C157.297 313.975 156.685 313.96 156.075 314.002Z" fill="#171717"></path><path d="M410.449 314.559C402.582 315.907 394.543 315.907 386.676 314.559C380.429 313.526 374.053 313.551 367.813 314.633C360.031 315.842 352.101 315.728 344.356 314.296C341.355 313.653 338.252 313.653 335.25 314.296C335.976 314.749 336.228 315.033 336.502 315.054C343.715 315.632 350.917 316.306 358.151 316.695C361.148 316.76 364.145 316.535 367.099 316.022C374.383 314.936 381.793 315.014 389.052 316.253C395.297 317.217 401.649 317.256 407.905 316.369C411.185 315.969 414.476 315.748 417.757 315.317C418.358 315.211 418.949 315.052 419.523 314.843L419.334 313.791C416.369 314.044 413.362 314.065 410.449 314.559Z" fill="#171717"></path><path d="M346.406 296.012C346.966 295.918 347.518 295.78 348.057 295.602L347.962 294.55C345.966 294.583 343.973 294.716 341.99 294.949C334.721 296.091 327.324 296.154 320.036 295.139C315.673 294.581 311.172 294.97 306.735 295.139C304.632 295.139 302.635 295.675 300.574 295.865C295.169 296.37 289.828 295.686 284.487 294.928C282.441 294.51 280.33 294.531 278.294 294.992C279.03 295.549 279.345 295.938 279.598 295.959C285.17 296.422 290.732 297.011 296.305 297.211C299.198 297.233 302.088 297.022 304.948 296.58C310.284 295.795 315.704 295.777 321.045 296.528C327.313 297.543 333.703 297.543 339.971 296.528C342.053 296.201 344.24 296.191 346.406 296.012Z" fill="#171717"></path><path d="M102.683 293.445L102.567 293.897C102.996 294.153 103.45 294.361 103.924 294.518C104.438 294.571 104.955 294.571 105.469 294.518H163.246C164.213 294.518 165.17 294.381 166.127 294.308L166.032 293.413L102.683 293.445Z" fill="#171717"></path><path d="M373.733 295.286C373.124 295.39 372.526 295.549 371.945 295.759C374.784 296.738 449.026 296.811 452.286 296.012C451.465 295.665 450.992 295.286 450.519 295.286C424.948 295.258 399.353 295.258 373.733 295.286Z" fill="#171717"></path><path d="M77.3017 293.413C64.0676 293.371 50.8336 293.371 37.5995 293.413C36.6217 293.413 35.6543 293.477 34.687 293.508V294.203C36.9686 294.886 77.6592 294.918 80.3088 294.203C79.5413 292.856 78.2796 293.424 77.3017 293.413Z" fill="#171717"></path></g><rect x="376" y="40" width="64" height="64" rx="32" fill="#FEF3ED"></rect><defs><clipPath id="clip0_143_674"><rect width="500" height="240" fill="white" transform="translate(0 77)"></rect></clipPath></defs></svg> 