<?xml version="1.0" encoding="UTF-8"?> <svg xmlns="http://www.w3.org/2000/svg" width="102" height="120" viewBox="0 0 102 120" fill="none"><g clip-path="url(#clip0_143_803)"><path d="M0 43.6586V69.6813L38.9459 71.5201L39.3405 120H48.2951V29.2148L0 43.6586Z" fill="#F9F8FF"></path><path d="M102 69.1099V42.8123L101.982 42.0208L48.2952 29.2148V120H55.8776L57.5735 72.0303L102 69.1099Z" fill="#DDDBE7"></path><path d="M6.69815 37.4594L6.65063 41.6695L48.295 29.2148V24.9125L6.69815 37.4594Z" fill="#364889"></path><path d="M95.1786 36.246L48.2952 24.9125V29.2148L95.1786 40.3981V36.246Z" fill="#001759"></path><path d="M50.8688 0L6.69824 37.4595L48.2951 24.9126L50.8688 0Z" fill="#FCF4EE"></path><path d="M95.1786 36.246L50.8688 0L48.2952 24.9126L95.1786 36.246Z" fill="#F7EAE0"></path><path d="M54.7751 62.1003V120H102V69.11L54.7751 62.1003Z" fill="#D2D0DD"></path><path d="M0 69.6813V120H41.8989V62.7463L0 69.6813Z" fill="#E7E5F3"></path></g><defs><clipPath id="clip0_143_803"><rect width="102" height="120" fill="white"></rect></clipPath></defs></svg> 